<?xml version="1.0" standalone="no"?>
<!DOCTYPE svg PUBLIC "-//W3C//DTD SVG 20010904//EN"
 "http://www.w3.org/TR/2001/REC-SVG-20010904/DTD/svg10.dtd">
<svg version="1.0" xmlns="http://www.w3.org/2000/svg"
 width="416.000000pt" height="538.000000pt" viewBox="0 0 416.000000 538.000000"
 preserveAspectRatio="xMidYMid meet">

<g transform="translate(0.000000,538.000000) scale(0.100000,-0.100000)"
fill="#000000" stroke="none">
<path d="M1635 5359 c-82 -3 -175 -11 -205 -18 -30 -7 -81 -17 -112 -23 -32
-6 -58 -14 -58 -17 0 -4 -21 -13 -47 -19 -44 -12 -178 -70 -213 -92 -8 -6 -26
-15 -39 -20 -13 -6 -35 -19 -48 -30 -14 -11 -44 -25 -67 -31 -41 -11 -186 -76
-196 -88 -3 -3 -16 -12 -30 -19 -25 -13 -115 -97 -179 -167 -19 -21 -53 -46
-76 -56 -23 -10 -47 -29 -55 -43 -19 -37 -7 -114 26 -164 l28 -42 102 0 c102
0 178 16 199 43 6 7 32 23 60 36 27 13 69 36 92 52 23 16 63 38 89 49 25 11
65 37 89 58 32 28 61 42 116 56 41 10 98 29 127 42 29 13 55 24 58 24 3 0 31
12 62 28 55 26 63 27 252 30 235 4 441 -10 473 -31 12 -8 46 -19 75 -26 29 -6
78 -22 110 -35 31 -13 75 -29 96 -36 22 -7 49 -21 60 -31 11 -11 28 -19 39
-19 10 0 32 -11 49 -25 16 -14 42 -25 57 -25 16 0 37 -10 51 -25 19 -21 33
-25 78 -25 50 0 156 21 210 41 19 8 22 15 22 71 l0 62 -58 57 c-61 59 -114 92
-169 104 -18 3 -33 11 -33 16 0 5 -6 9 -13 9 -7 0 -31 15 -53 33 -21 19 -57
40 -79 47 -22 7 -52 22 -67 33 -27 20 -27 22 -12 46 16 24 16 25 -11 47 -16
12 -47 31 -69 40 -23 10 -43 21 -46 24 -3 3 -34 20 -70 38 l-66 32 -199 -2
c-110 -1 -267 -5 -350 -9z m575 -78 c35 -15 46 -24 48 -45 5 -43 138 -147 241
-188 25 -9 47 -21 50 -26 13 -19 114 -82 133 -82 27 0 55 -16 118 -69 65 -54
70 -60 70 -87 0 -18 -8 -22 -47 -28 -142 -20 -140 -20 -173 8 -18 15 -44 26
-61 26 -16 0 -38 9 -49 20 -11 11 -28 20 -38 20 -10 0 -33 11 -50 24 -18 13
-54 29 -80 36 -26 7 -51 16 -57 20 -9 6 -176 62 -255 85 -73 22 -630 45 -630
27 0 -5 -12 -13 -27 -17 -24 -6 -66 -22 -248 -100 -16 -7 -58 -19 -91 -25 -50
-10 -71 -20 -109 -55 -25 -24 -61 -49 -78 -56 -34 -13 -203 -109 -251 -142
-20 -13 -58 -23 -118 -30 l-88 -10 -25 27 c-34 37 -35 93 -2 105 41 16 98 59
128 98 62 81 145 146 230 179 24 10 47 22 50 26 3 5 28 15 55 22 27 7 69 25
92 40 24 15 53 31 65 36 12 6 29 14 37 19 44 26 152 73 200 86 30 9 64 20 75
25 67 29 278 44 665 48 148 1 182 -2 220 -17z"/>
<path d="M2314 4196 c-38 -19 -76 -37 -84 -41 -22 -8 -55 -29 -73 -44 -9 -7
-31 -21 -49 -30 -152 -82 -182 -100 -190 -116 -6 -9 -19 -26 -29 -36 -11 -11
-19 -24 -19 -31 0 -7 -20 -33 -44 -58 -44 -44 -116 -169 -116 -200 0 -9 -8
-25 -18 -36 -9 -10 -23 -30 -29 -44 -6 -14 -12 -19 -12 -11 -2 27 -91 147
-158 212 -37 36 -93 80 -124 98 -31 17 -62 38 -69 46 -6 8 -35 23 -63 34 -29
11 -68 27 -87 37 -24 13 -78 21 -186 28 -84 6 -156 14 -160 19 -4 4 -22 7 -40
7 -23 0 -33 5 -37 20 -7 26 -43 26 -57 1 -5 -11 -7 -27 -4 -35 4 -11 0 -16
-12 -16 -24 0 -182 -75 -209 -99 -11 -10 -40 -29 -65 -43 -25 -14 -58 -43 -75
-64 -16 -21 -43 -51 -59 -68 -142 -147 -141 -147 -155 -224 -7 -39 -19 -76
-27 -80 -20 -11 -44 -210 -44 -364 0 -131 12 -189 49 -231 9 -11 23 -35 31
-55 31 -76 84 -154 137 -204 31 -29 73 -69 93 -89 56 -55 189 -140 245 -156
28 -8 55 -19 60 -23 6 -4 57 -18 115 -29 58 -12 124 -29 146 -37 31 -12 69
-15 141 -12 115 4 101 -6 268 173 28 30 62 57 78 60 l27 7 0 -243 c0 -266 9
-349 41 -392 11 -15 23 -45 26 -65 8 -50 29 -89 55 -103 25 -14 135 -5 182 15
60 26 140 116 199 225 61 112 74 159 79 301 l3 85 -26 3 c-35 4 -39 -9 -49
-139 -8 -101 -11 -111 -60 -205 -28 -55 -59 -106 -69 -114 -10 -8 -24 -25 -30
-37 -7 -13 -17 -23 -23 -23 -7 0 -22 -10 -35 -22 -18 -16 -36 -21 -84 -22
l-62 -1 -12 51 c-6 28 -21 64 -32 80 -30 43 -43 175 -43 431 l0 221 33 41 c17
22 42 54 55 71 30 39 90 186 98 242 3 24 12 53 20 65 7 11 19 43 25 69 l12 47
24 -29 c13 -16 26 -40 30 -54 3 -14 18 -38 32 -54 87 -98 161 -170 191 -186
19 -10 58 -40 86 -67 80 -75 97 -87 133 -102 18 -8 42 -24 53 -35 18 -20 29
-21 276 -21 221 0 262 2 290 17 18 9 57 24 87 33 89 26 238 140 251 192 4 13
10 23 14 23 5 0 11 8 14 18 6 18 118 134 180 187 l36 30 0 191 c0 119 -4 194
-10 200 -6 6 -15 49 -20 95 -4 46 -12 97 -16 113 -8 34 -54 124 -84 166 -11
15 -20 33 -20 39 0 6 -16 33 -35 60 -19 26 -35 50 -35 52 0 2 -28 33 -63 69
-56 59 -203 170 -224 170 -4 0 -37 18 -73 40 l-65 40 -191 0 -192 0 -68 -34z
m476 -61 c30 -19 58 -35 62 -35 7 0 33 -16 109 -65 8 -5 32 -21 52 -33 20 -13
37 -29 37 -34 0 -6 21 -32 48 -57 26 -26 61 -71 77 -100 17 -29 39 -67 50 -84
11 -18 29 -52 40 -77 11 -25 23 -47 27 -51 4 -3 12 -48 18 -100 6 -51 14 -112
20 -134 5 -22 12 -103 16 -180 l7 -141 -34 -34 c-19 -19 -52 -52 -74 -72 -57
-52 -67 -65 -120 -143 -71 -107 -139 -156 -285 -206 l-95 -33 -216 0 c-194 -1
-217 1 -233 17 -10 10 -39 29 -65 42 -25 13 -63 42 -84 64 -20 23 -63 58 -94
78 -81 54 -201 181 -233 247 -8 17 -37 64 -64 104 -43 65 -47 76 -37 98 6 15
11 84 11 174 0 141 2 153 27 207 64 141 81 170 123 214 25 26 57 67 72 91 17
28 43 52 74 68 26 14 82 45 123 69 42 25 119 67 171 93 l95 48 160 0 161 0 54
-35z m-1890 -190 c127 -6 240 -23 240 -35 0 -5 25 -16 55 -25 30 -10 55 -21
55 -25 0 -8 41 -36 112 -77 84 -47 222 -217 234 -286 3 -23 16 -53 27 -68 24
-34 35 -122 17 -144 -10 -12 -10 -31 0 -96 14 -91 9 -163 -16 -211 -9 -18 -22
-57 -29 -88 -17 -77 -61 -189 -83 -214 -11 -12 -25 -32 -32 -46 -22 -43 -63
-80 -115 -105 -28 -13 -74 -47 -102 -77 -80 -84 -129 -132 -146 -146 -19 -14
-193 -17 -199 -3 -2 5 -45 16 -96 25 -51 9 -107 22 -125 30 -18 7 -55 18 -84
25 -29 7 -61 20 -72 29 -12 10 -50 35 -86 57 -35 22 -65 45 -65 51 0 12 -82
84 -97 84 -16 1 -115 152 -132 202 -6 19 -20 43 -29 54 -33 35 -42 83 -42 228
1 164 14 283 34 305 8 9 21 48 29 87 13 61 21 78 55 110 22 22 72 76 111 122
40 45 77 82 82 82 5 0 15 5 22 10 63 54 208 130 246 130 15 0 36 7 47 15 10 8
30 13 44 10 14 -2 77 -7 140 -10z"/>
<path d="M2476 3434 c-13 -33 -6 -84 14 -104 15 -15 33 -20 73 -20 28 0 58 4
65 9 21 13 11 82 -13 95 -11 6 -24 17 -28 24 -12 19 -103 16 -111 -4z"/>
<path d="M668 3219 c-21 -12 -25 -88 -6 -107 21 -21 115 -15 138 8 25 25 28
95 4 104 -25 10 -117 6 -136 -5z"/>
<path d="M3415 2599 c-12 -6 -32 -29 -47 -53 -19 -32 -49 -57 -119 -101 -52
-32 -110 -73 -129 -91 -19 -17 -46 -35 -60 -39 -14 -4 -27 -11 -30 -15 -3 -3
-33 -14 -68 -24 -50 -14 -101 -17 -265 -16 -111 1 -208 1 -214 1 -7 -1 -13
-12 -13 -26 0 -39 32 -45 238 -45 138 0 202 4 251 16 82 21 175 65 215 102 17
16 56 44 86 62 30 19 57 37 60 41 3 3 20 14 38 23 19 10 46 37 60 61 19 31 34
44 49 45 29 0 49 35 32 56 -13 16 -54 17 -84 3z"/>
<path d="M397 2253 c-14 -13 -6 -42 12 -48 11 -3 25 -21 31 -39 16 -50 81
-110 162 -150 l73 -36 201 -7 200 -6 43 29 c24 16 55 37 70 46 14 10 33 18 42
18 16 0 29 19 29 40 0 5 -9 14 -19 20 -25 13 -59 0 -128 -47 l-53 -36 -191 6
c-169 5 -195 8 -218 25 -15 10 -36 22 -49 26 -40 13 -80 56 -106 111 -23 51
-27 55 -59 55 -18 0 -37 -3 -40 -7z"/>
<path d="M3372 2221 c-8 -4 -12 -19 -10 -32 2 -17 10 -25 29 -27 16 -2 31 -12
37 -28 12 -25 31 -31 49 -13 13 13 136 -49 190 -97 21 -19 40 -34 43 -34 3 0
35 -29 70 -65 36 -36 79 -74 96 -85 21 -13 35 -34 43 -62 7 -24 24 -56 37 -71
13 -16 27 -41 30 -55 4 -15 17 -47 30 -73 12 -25 26 -63 29 -85 4 -21 13 -45
19 -53 7 -9 11 -82 11 -215 0 -214 -7 -252 -53 -299 -12 -12 -40 -44 -61 -72
-22 -27 -51 -61 -64 -75 -13 -14 -40 -50 -59 -80 -20 -30 -63 -80 -96 -110
-78 -72 -87 -79 -120 -93 -15 -7 -51 -27 -80 -46 -38 -25 -52 -41 -52 -58 0
-13 7 -26 15 -29 17 -7 76 18 94 39 6 8 30 22 53 33 49 22 48 21 150 117 43
39 78 77 78 82 0 13 25 47 60 84 14 14 37 44 51 66 14 22 45 59 67 81 23 23
42 44 42 48 0 3 11 30 25 60 23 51 25 65 24 208 -1 165 -7 230 -33 322 -21 74
-80 211 -106 244 -11 13 -25 42 -30 62 -6 23 -25 51 -48 70 -20 18 -65 59
-100 92 -78 75 -184 155 -238 179 -23 10 -47 26 -54 34 -30 36 -134 58 -168
36z"/>
<path d="M3095 1933 c-84 -4 -103 -10 -110 -33 -5 -15 -15 -20 -42 -20 l-36 0
21 -23 c31 -33 27 -62 -14 -113 -52 -63 -81 -60 -123 9 l-24 39 23 30 c14 19
17 29 9 26 -8 -3 -40 -13 -71 -22 -31 -9 -60 -20 -63 -25 -5 -9 -110 -71 -165
-98 -14 -7 -32 -17 -40 -23 -8 -5 -42 -22 -75 -36 -89 -39 -210 -98 -295 -144
l-75 -41 -165 4 c-91 3 -179 10 -197 15 -17 6 -92 15 -165 22 -73 6 -142 15
-153 20 -11 5 -89 24 -174 41 -127 26 -161 37 -198 63 l-45 31 -137 0 c-111 0
-145 -4 -181 -19 -80 -33 -90 -39 -95 -57 -3 -10 -20 -33 -38 -52 -132 -138
-157 -211 -157 -454 0 -119 2 -133 22 -161 157 -213 305 -383 374 -427 17 -11
47 -30 67 -43 20 -13 39 -32 42 -42 3 -11 20 -22 38 -26 18 -3 43 -15 56 -25
12 -10 39 -21 60 -25 20 -4 44 -11 55 -16 10 -6 50 -19 88 -29 39 -11 84 -27
100 -35 16 -8 75 -22 131 -30 56 -8 127 -21 157 -29 89 -23 237 -35 434 -35
186 0 272 10 313 36 12 8 35 15 50 16 15 1 -43 4 -130 7 -151 6 -160 7 -178
30 -15 19 -20 20 -25 8 -3 -9 -16 -23 -29 -31 -21 -14 -43 -15 -150 -7 -69 5
-128 11 -131 14 -30 30 -17 200 18 230 21 18 83 23 93 8 3 -5 31 -13 61 -17
67 -8 89 -26 98 -82 9 -60 26 -63 26 -3 0 39 5 56 25 77 14 15 25 33 25 39 0
18 24 25 80 25 40 0 55 -5 83 -30 19 -16 39 -30 45 -30 5 0 39 -28 76 -62 56
-52 66 -67 66 -95 0 -19 -4 -42 -9 -51 -8 -16 2 -17 137 -14 94 3 161 9 187
19 22 8 69 23 105 34 36 11 76 26 89 32 22 11 17 12 -40 15 -84 3 -99 20 -99
106 1 128 23 176 79 176 26 0 183 -69 189 -82 2 -5 9 -8 17 -8 7 0 18 -7 25
-15 26 -31 32 -15 25 64 -7 75 -6 79 16 95 29 20 188 23 207 4 10 -10 15 -10
21 1 12 19 57 -50 66 -100 6 -30 2 -41 -19 -64 -14 -15 -26 -32 -26 -36 0 -5
37 -9 83 -9 86 0 107 8 107 43 0 10 19 38 43 61 50 51 163 171 193 206 12 14
40 38 63 53 31 21 42 36 47 65 3 20 12 56 20 80 8 23 14 55 14 70 0 16 6 34
12 40 8 8 14 60 16 152 4 129 3 141 -17 166 -25 31 -27 72 -6 100 8 10 15 34
15 53 0 29 -11 44 -92 123 -51 49 -107 96 -124 103 -19 9 -34 24 -38 39 -3 14
-15 28 -26 31 -11 3 -26 12 -33 20 -8 7 -46 30 -84 49 l-70 36 -144 -2 c-79
-1 -171 -3 -204 -5z m-444 -235 c14 -25 6 -123 -12 -144 -8 -10 -34 -14 -93
-14 -91 0 -102 4 -111 41 -5 21 -1 31 21 48 15 11 35 21 46 21 28 0 58 18 58
35 0 36 73 47 91 13z m-1663 -130 c38 -29 42 -37 42 -74 0 -38 -5 -46 -41 -75
-30 -24 -37 -34 -27 -41 8 -5 -21 -7 -72 -6 l-85 3 -1 48 c0 26 -6 53 -12 59
-18 18 -15 79 5 100 12 14 31 18 83 18 59 0 71 -3 108 -32z m289 -90 c54 -17
106 -39 117 -48 17 -17 17 -19 1 -54 -10 -20 -21 -36 -26 -36 -5 0 -15 -16
-23 -35 -8 -19 -19 -35 -24 -35 -14 0 -132 -80 -132 -90 0 -14 -21 -12 -39 4
-9 7 -29 18 -46 25 l-30 11 33 -3 32 -4 -24 26 c-34 35 -40 67 -31 167 6 75
10 86 28 94 37 15 62 11 164 -22z m1052 16 c19 -14 22 -22 17 -53 -4 -20 -9
-53 -13 -74 -6 -45 -42 -70 -71 -49 -9 7 -41 24 -69 37 -60 28 -76 61 -52 103
26 46 142 68 188 36z m-658 -66 c66 -3 99 -18 99 -44 0 -22 27 -16 48 11 19
24 25 25 116 25 90 0 96 -1 111 -24 9 -13 21 -55 27 -92 10 -57 9 -69 -3 -72
-8 -3 -29 -20 -46 -39 l-33 -34 -43 25 c-24 15 -57 26 -74 26 -37 0 -48 12
-65 73 -17 65 -36 61 -40 -10 -3 -56 -3 -56 -43 -69 -25 -9 -56 -32 -81 -60
-39 -45 -42 -46 -81 -39 -36 6 -46 14 -83 68 -37 53 -42 68 -44 121 -1 51 3
68 27 104 l28 44 57 -6 c31 -3 87 -7 123 -8z m792 -246 c3 -4 -6 -20 -19 -35
-24 -28 -24 -28 -24 -5 0 34 30 62 43 40z m150 -259 c-7 -2 -19 -2 -25 0 -7 3
-2 5 12 5 14 0 19 -2 13 -5z m-118 -403 c3 -5 15 -10 25 -10 18 0 85 -60 143
-129 36 -44 37 -92 1 -120 -22 -18 -41 -21 -113 -21 -47 0 -106 6 -131 14 -38
11 -46 18 -53 47 -5 19 -7 67 -5 106 3 62 7 77 28 97 26 26 93 36 105 16z
m-1267 -56 c13 -9 35 -40 49 -70 27 -59 26 -96 -5 -113 -22 -12 -131 1 -141
17 -3 6 -28 16 -54 23 -62 15 -85 46 -67 89 22 53 54 70 129 70 45 0 74 -5 89
-16z m284 -1 c28 -34 88 -154 88 -178 0 -49 -22 -57 -146 -53 -137 4 -143 8
-144 110 0 65 14 98 42 98 5 0 21 9 35 20 33 26 104 27 125 3z"/>
<path d="M855 1860 c-11 -5 -51 -9 -88 -9 -65 -1 -166 -32 -175 -53 -2 -4 -24
-8 -48 -8 -70 0 -129 -19 -160 -51 -15 -16 -34 -29 -41 -29 -7 0 -18 -9 -25
-20 -7 -11 -17 -20 -23 -20 -20 -1 -77 -62 -92 -98 -8 -20 -18 -39 -22 -42 -3
-3 -26 -50 -51 -105 l-45 -100 -3 -163 -3 -163 35 -65 c20 -35 41 -84 47 -109
6 -25 15 -45 19 -45 5 0 11 -13 15 -28 3 -15 30 -52 60 -82 31 -30 72 -77 92
-105 37 -50 100 -115 112 -115 3 0 17 -11 31 -25 28 -29 99 -82 139 -105 28
-16 127 -75 151 -90 8 -5 58 -26 110 -46 52 -20 122 -48 155 -64 33 -15 71
-31 85 -35 14 -4 30 -11 35 -15 21 -16 334 -60 426 -60 38 0 48 4 52 20 10 37
-15 46 -160 59 -226 20 -335 46 -437 106 -24 14 -49 25 -56 25 -8 0 -32 9 -54
19 -23 10 -58 24 -79 31 -20 6 -43 17 -50 24 -6 6 -30 20 -52 31 -42 19 -186
116 -220 146 -90 83 -145 142 -145 155 0 2 -29 34 -64 69 -36 36 -68 75 -71
88 -4 12 -15 41 -26 64 -10 24 -19 47 -19 53 0 5 -13 31 -30 57 -30 47 -30 47
-30 197 0 142 2 154 26 206 105 221 96 209 223 304 60 45 72 50 138 56 47 5
84 15 108 30 35 22 139 38 274 44 48 2 64 30 31 56 -26 21 -62 24 -95 10z"/>
<path d="M3231 439 c-13 -5 -50 -10 -82 -10 -48 -1 -59 -5 -64 -20 -4 -11 -23
-24 -46 -30 -21 -7 -39 -16 -39 -22 0 -5 8 -7 18 -4 9 3 51 15 92 27 41 12 80
26 88 32 7 6 36 17 65 24 38 9 44 12 22 13 -16 0 -41 -5 -54 -10z"/>
</g>
</svg>
